<svg width="268" height="60" viewBox="0 0 268 60" fill="none" xmlns="http://www.w3.org/2000/svg">
<path d="M97.5231 15.6597L99.9699 2.09369C100.174 1.00382 99.3 0 98.1931 0H52.4605H18.3503C17.7095 0 17.0978 0.344168 16.7774 0.889101L0.232075 29.1109C-0.0883446 29.6558 -0.0883446 30.3442 0.232075 30.8891L16.7774 59.0822C17.0978 59.6271 17.7095 59.9713 18.3503 59.9713H41.741H52.4605H88.5805C89.4543 59.9713 90.2117 59.3403 90.3573 58.4799L92.8042 44.7419C93.0081 43.652 92.1342 42.6482 91.0273 42.6482H70.1418C69.0058 42.6482 68.161 41.6444 68.3649 40.5258L68.6562 38.9771C68.8018 38.1166 69.5592 37.5143 70.4331 37.5143H88.6387C89.5126 37.5143 90.27 36.8834 90.4447 36.0229L92.5129 24.3499C92.7168 23.26 91.8429 22.2562 90.7069 22.2562H73.7829C72.6469 22.2562 71.8021 21.2524 71.9769 20.1625L72.2391 18.6138C72.3847 17.7533 73.1421 17.1224 74.0451 17.1224H95.688C96.6201 17.1511 97.3774 16.5201 97.5231 15.6597ZM22.341 49.6463L11.3594 30.8891C11.039 30.3442 11.039 29.6558 11.3594 29.1109L22.341 10.3537C22.6614 9.80879 23.2731 9.46463 23.914 9.46463H45.9064C46.5473 9.46463 47.159 9.80879 47.4794 10.3537L58.461 29.1109C58.7815 29.6558 58.7815 30.3442 58.461 30.8891L47.4794 49.6463C47.159 50.1912 46.5473 50.5354 45.9064 50.5354H23.914C23.244 50.5354 22.6614 50.1912 22.341 49.6463Z" fill="url(#paint0_linear_29751_2)"/>
<path d="M129 35.2539L128.174 40H114.902L115.728 35.2539H129ZM121.512 14.4062L117.064 40H111.053L115.482 14.4062H121.512ZM129.141 24.5664L128.35 29.1543H116.783L117.592 24.5664H129.141ZM132.656 14.4062L131.83 19.1699H118.506L119.35 14.4062H132.656ZM141.146 33.7246L149.268 14.4062H156.176L143.783 40H139.301L141.146 33.7246ZM139.441 14.4062L141.586 34.2695L141.516 40H137.227L132.902 14.4062H139.441ZM166.371 20.084L156.949 40H150.287L163.857 14.4062H168.111L166.371 20.084ZM167.988 40L165.387 19.4688L165.527 14.4062H169.535L174.264 40H167.988ZM169.359 30.4551L168.516 35.2188H155.736L156.58 30.4551H169.359ZM180.592 14.4062L190.066 14.4238C191.625 14.4473 193.06 14.7285 194.373 15.2676C195.685 15.8066 196.717 16.6328 197.467 17.7461C198.217 18.8477 198.533 20.2598 198.416 21.9824C198.31 23.4004 197.994 24.5957 197.467 25.5684C196.939 26.5293 196.225 27.3496 195.322 28.0293C194.42 28.709 193.359 29.3125 192.141 29.8398L189.961 30.9648H181.453L182.262 26.2012L188.045 26.2363C188.818 26.2246 189.504 26.0723 190.102 25.7793C190.711 25.4863 191.209 25.0703 191.596 24.5312C191.982 23.9922 192.228 23.3359 192.334 22.5625C192.428 21.9297 192.404 21.3672 192.264 20.875C192.123 20.3711 191.853 19.9727 191.455 19.6797C191.057 19.3867 190.529 19.2227 189.873 19.1875L185.795 19.1699L182.174 40H176.162L180.592 14.4062ZM189.891 40L186.357 28.6797L192.457 28.6445L196.307 39.7012V40H189.891ZM216.855 14.4062H222.867L220.019 31.1055C219.738 33.0625 219.1 34.7383 218.103 36.1328C217.119 37.5273 215.848 38.5879 214.289 39.3145C212.73 40.041 210.967 40.3926 208.998 40.3691C207.17 40.334 205.57 39.9414 204.199 39.1914C202.84 38.4414 201.82 37.3809 201.141 36.0098C200.461 34.6387 200.232 33.0098 200.455 31.123L203.303 14.4062H209.332L206.502 31.1406C206.408 31.9141 206.414 32.6348 206.519 33.3027C206.637 33.9707 206.918 34.5156 207.363 34.9375C207.809 35.3594 208.477 35.582 209.367 35.6055C210.316 35.6406 211.107 35.4648 211.74 35.0781C212.385 34.6914 212.889 34.1523 213.252 33.4609C213.627 32.7695 213.879 31.9902 214.008 31.123L216.855 14.4062ZM244.857 26.3242L243.205 36.8535C242.42 37.7676 241.435 38.4824 240.252 38.998C239.068 39.502 237.826 39.8535 236.525 40.0527C235.236 40.2637 234.023 40.3574 232.887 40.334C231.105 40.3105 229.588 39.959 228.334 39.2793C227.092 38.5996 226.102 37.6797 225.363 36.5195C224.625 35.3594 224.127 34.041 223.869 32.5645C223.611 31.0879 223.582 29.541 223.781 27.9238L223.975 26.5176C224.197 24.8535 224.631 23.2715 225.275 21.7715C225.932 20.2598 226.781 18.918 227.824 17.7461C228.867 16.5742 230.103 15.6543 231.533 14.9863C232.975 14.3184 234.603 14.002 236.42 14.0371C238.307 14.0605 239.906 14.418 241.219 15.1094C242.543 15.7891 243.568 16.7734 244.295 18.0625C245.021 19.3516 245.443 20.9277 245.56 22.791L239.812 22.7734C239.754 22 239.607 21.3203 239.373 20.7344C239.15 20.1367 238.793 19.668 238.301 19.3281C237.809 18.9883 237.135 18.8008 236.279 18.7656C235.248 18.7188 234.369 18.9355 233.643 19.416C232.916 19.8848 232.307 20.5117 231.814 21.2969C231.334 22.082 230.953 22.9316 230.672 23.8457C230.402 24.7598 230.209 25.6328 230.092 26.4648L229.898 27.9414C229.805 28.7266 229.746 29.5586 229.723 30.4375C229.711 31.3164 229.81 32.1426 230.021 32.916C230.232 33.6895 230.613 34.3223 231.164 34.8145C231.727 35.3066 232.529 35.5645 233.572 35.5879C234.029 35.5996 234.469 35.5703 234.891 35.5C235.324 35.4297 235.74 35.3184 236.139 35.166C236.549 35.002 236.941 34.7969 237.316 34.5508L238.107 30.5605H233.941L234.68 26.3242H244.857ZM259.939 33.0742C260.045 32.5234 260.004 32.0547 259.816 31.668C259.641 31.2812 259.371 30.9531 259.008 30.6836C258.656 30.4141 258.252 30.1855 257.795 29.998C257.35 29.7988 256.916 29.6172 256.494 29.4531C255.58 29.0898 254.678 28.6797 253.787 28.2227C252.896 27.7539 252.088 27.2031 251.361 26.5703C250.635 25.9375 250.066 25.1992 249.656 24.3555C249.258 23.5117 249.088 22.5215 249.146 21.3848C249.228 20.084 249.598 18.9648 250.254 18.0273C250.91 17.0898 251.748 16.3281 252.768 15.7422C253.799 15.1445 254.906 14.7109 256.09 14.4414C257.285 14.1602 258.451 14.0313 259.588 14.0547C261.205 14.0781 262.646 14.4062 263.912 15.0391C265.189 15.6719 266.191 16.5801 266.918 17.7637C267.644 18.9355 267.996 20.3535 267.973 22.0176H262.014C262.037 21.3613 261.949 20.793 261.75 20.3125C261.562 19.8203 261.252 19.4395 260.818 19.1699C260.385 18.8887 259.822 18.7422 259.131 18.7305C258.557 18.7188 257.982 18.8125 257.408 19.0117C256.834 19.1992 256.336 19.4922 255.914 19.8906C255.492 20.2891 255.223 20.8047 255.105 21.4375C255.023 21.918 255.1 22.3398 255.334 22.7031C255.568 23.0547 255.891 23.3594 256.301 23.6172C256.711 23.8633 257.139 24.0742 257.584 24.25C258.041 24.4258 258.439 24.5781 258.779 24.707C259.74 25.0703 260.66 25.498 261.539 25.9902C262.43 26.4707 263.215 27.0391 263.894 27.6953C264.586 28.3516 265.113 29.1191 265.477 29.998C265.852 30.8652 266.004 31.873 265.934 33.0215C265.84 34.3457 265.488 35.4766 264.879 36.4141C264.269 37.3516 263.484 38.1133 262.523 38.6992C261.562 39.2852 260.508 39.7129 259.359 39.9824C258.211 40.252 257.045 40.3809 255.861 40.3691C254.537 40.3457 253.301 40.1465 252.152 39.7715C251.004 39.3848 250.002 38.8281 249.146 38.1016C248.291 37.3633 247.629 36.4609 247.16 35.3945C246.691 34.3164 246.469 33.0801 246.492 31.6855L252.521 31.7031C252.486 32.3594 252.527 32.9395 252.644 33.4434C252.773 33.9355 252.984 34.3516 253.277 34.6914C253.582 35.0195 253.975 35.2715 254.455 35.4473C254.935 35.6113 255.516 35.6934 256.195 35.6934C256.769 35.6934 257.32 35.6055 257.848 35.4297C258.387 35.2422 258.844 34.9551 259.219 34.5684C259.594 34.1816 259.834 33.6836 259.939 33.0742Z" fill="black"/>
<defs>
<linearGradient id="paint0_linear_29751_2" x1="9.23476" y1="29.9946" x2="210.408" y2="29.9946" gradientUnits="userSpaceOnUse">
<stop stop-color="#B8005F"/>
<stop offset="1" stop-color="#00FFFF"/>
</linearGradient>
</defs>
</svg>
